<svg viewBox="0 0 77.68 68.83" xmlns:xlink="http://www.w3.org/1999/xlink" xmlns="http://www.w3.org/2000/svg" data-name="图层 1" id="图层_1"><defs><style>.cls-1,.cls-4{fill:#ffa83b;}.cls-1,.cls-10,.cls-2,.cls-3,.cls-7,.cls-8,.cls-9{stroke:#383838;}.cls-1,.cls-10,.cls-3,.cls-7{stroke-miterlimit:10;}.cls-10,.cls-2,.cls-7,.cls-9{fill:none;}.cls-10,.cls-2,.cls-8,.cls-9{stroke-linecap:round;}.cls-2,.cls-8,.cls-9{stroke-linejoin:round;}.cls-2{stroke-width:1.5px;}.cls-3{fill:#fff;}.cls-5{clip-path:url(#clip-path);}.cls-6{fill:#383838;}.cls-8{fill:#d6d6d6;}.cls-9{stroke-width:3px;}.cls-10{stroke-width:2px;}</style><clipPath transform="translate(-437.06 -267.65)" id="clip-path"><rect transform="translate(133.68 -142.97) rotate(19.47)" rx="13.68" height="28.04" width="42.72" y="303.99" x="462.06" class="cls-1"></rect></clipPath></defs><title>蜜蜂</title><path transform="translate(-437.06 -267.65)" d="M460.29,327.66l4.14.85a5.09,5.09,0,0,0,4.87-1.66l3.75-4.43" class="cls-2"></path><ellipse transform="translate(-441.36 -260.39) rotate(-0.85)" ry="14.09" rx="9.87" cy="294.96" cx="488.57" class="cls-3"></ellipse><ellipse transform="matrix(0.58, -0.82, 0.82, 0.58, -469.37, 264.6)" ry="9.87" rx="14.09" cy="297.29" cx="497.2" class="cls-3"></ellipse><rect transform="translate(-303.38 -410.62) rotate(19.47)" rx="13.68" height="28.04" width="42.72" y="303.99" x="462.06" class="cls-4"></rect><g class="cls-5"><path transform="translate(-437.06 -267.65)" d="M478.68,304c2.67,4.05,1.34,9-.78,13-2,3.72-4.9,8.43-9.65,8.49-3.22,0-3.22,5,0,5,6.67-.08,11.08-5.55,14-11s4.45-12.43.78-18c-1.77-2.68-6.1-.18-4.32,2.52Z" class="cls-6"></path><path transform="translate(-437.06 -267.65)" d="M488.11,306.41a13.78,13.78,0,0,1,.45,13.68c-2.28,4.16-6.07,8.13-10.67,9.6-3.05,1-1.75,5.81,1.33,4.82,5.93-1.9,11-6.79,13.87-12.29a18.94,18.94,0,0,0-.66-18.34c-1.67-2.74-6-.23-4.32,2.53Z" class="cls-6"></path><path transform="translate(-437.06 -267.65)" d="M497.78,310.17c1.26,4.53,2.15,9.43.7,14-1.05,3.33-3.49,6.37-6.93,7.36-3.08.89-1.77,5.71,1.33,4.82,4.94-1.42,8.46-5.45,10.19-10.18,2-5.56,1.08-11.8-.47-17.35-.87-3.09-5.7-1.78-4.82,1.33Z" class="cls-6"></path></g><rect transform="translate(-303.38 -410.62) rotate(19.47)" rx="13.68" height="28.04" width="42.72" y="303.99" x="462.06" class="cls-7"></rect><polygon points="67.47 56.56 77.18 62.53 66.09 59.86 67.47 56.56" class="cls-8"></polygon><ellipse transform="translate(-473.46 -202.94) rotate(-7.64)" ry="17.97" rx="20.02" cy="304.84" cx="466.07" class="cls-1"></ellipse><path transform="translate(-437.06 -267.65)" d="M473.66,271.75s-8.53,7.14-9.54,18.32" class="cls-9"></path><path transform="translate(-437.06 -267.65)" d="M441.05,282s12.38,1.09,16,10.43" class="cls-9"></path><circle r="2.82" cy="13.69" cx="2.82" class="cls-6"></circle><circle r="2.5" cy="2.5" cx="37.83" class="cls-6"></circle><circle r="8.28" cy="32.48" cx="34.38" class="cls-3"></circle><circle r="7.74" cy="38.16" cx="19.33" class="cls-3"></circle><circle r="2.84" cy="37.2" cx="17.29" class="cls-6"></circle><circle r="2.84" cy="32.48" cx="31.37" class="cls-6"></circle><path transform="translate(-437.06 -267.65)" d="M471.29,310.76a4.24,4.24,0,1,1-8.07,2.63c0-.1-.06-.2-.09-.3" class="cls-10"></path><path transform="translate(-437.06 -267.65)" d="M466,333.5l4.23.26a5.06,5.06,0,0,0,4.58-2.32l3.09-4.92" class="cls-2"></path></svg>